HIERARCHY
ROOT Hips
{
	OFFSET 0.000000 0.000000 0.000000 
	CHANNELS 6 Xposition Yposition Zposition Zrotation Yrotation Xrotation
	JOINT LeftUpLeg
	{
		OFFSET 1.363060 -1.794630 0.839290 
		CHANNELS 3 Zrotation Yrotation Xrotation
		JOINT LeftLeg
		{
			OFFSET 2.448110 -6.726130 0.000000 
			CHANNELS 3 Zrotation Yrotation Xrotation
			JOINT LeftFoot
			{
				OFFSET 2.562200 -7.039590 0.000000 
				CHANNELS 3 Zrotation Yrotation Xrotation
				JOINT LeftToeBase
				{
					OFFSET 0.157640 -0.433110 2.322550 
					CHANNELS 3 Zrotation Yrotation Xrotation
					End Site
					{
						OFFSET 0.000000 0.000000 0.000000 
					}
				}
			}
		}
	}
	JOINT RightUpLeg
	{
		OFFSET -1.305520 -1.794630 0.839290 
		CHANNELS 3 Zrotation Yrotation Xrotation
		JOINT RightLeg
		{
			OFFSET -2.542530 -6.985550 0.000000 
			CHANNELS 3 Zrotation Yrotation Xrotation
			JOINT RightFoot
			{
				OFFSET -2.568260 -7.056230 0.000000 
				CHANNELS 3 Zrotation Yrotation Xrotation
				JOINT RightToeBase
				{
					OFFSET -0.164730 -0.452590 2.363150 
					CHANNELS 3 Zrotation Yrotation Xrotation
					End Site
					{
						OFFSET 0.000000 0.000000 0.000000 
					}
				}
			}
		}
	}
	JOINT Spine
	{
		OFFSET 0.028270 2.035590 -0.193380 
		CHANNELS 3 Zrotation Yrotation Xrotation
		JOINT Spine1
		{
			OFFSET 0.056720 2.048850 -0.042750 
			CHANNELS 3 Zrotation Yrotation Xrotation
			JOINT Neck1
			{
				OFFSET -0.054170 1.746240 0.172020 
				CHANNELS 3 Zrotation Yrotation Xrotation
				JOINT Head
				{
					OFFSET 0.104070 1.761360 -0.123970 
					CHANNELS 3 Zrotation Yrotation Xrotation
					End Site
					{
						OFFSET 0.000000 0.000000 0.000000 
					}
				}
			}
			JOINT LeftArm
			{
				OFFSET 3.362410 1.200890 -0.311210 
				CHANNELS 3 Zrotation Yrotation Xrotation
				JOINT LeftForeArm
				{
					OFFSET 4.983000 -0.000000 -0.000000 
					CHANNELS 3 Zrotation Yrotation Xrotation
					JOINT LeftHand
					{
						OFFSET 3.483560 -0.000000 -0.000000 
						CHANNELS 3 Zrotation Yrotation Xrotation
						JOINT LeftHandIndex1
						{
							OFFSET 0.715260 -0.000000 -0.000000 
							CHANNELS 3 Zrotation Yrotation Xrotation
							End Site
							{
								OFFSET 0.000000 0.000000 0.000000 
							}
						}
					}
				}
			}
			JOINT RightArm
			{
				OFFSET -3.136600 1.374050 -0.404650 
				CHANNELS 3 Zrotation Yrotation Xrotation
				JOINT RightForeArm
				{
					OFFSET -5.241900 -0.000000 -0.000000 
					CHANNELS 3 Zrotation Yrotation Xrotation
					JOINT RightHand
					{
						OFFSET -3.444170 -0.000000 -0.000000 
						CHANNELS 3 Zrotation Yrotation Xrotation
						JOINT RightHandIndex1
						{
							OFFSET -0.622530 -0.000000 -0.000000 
							CHANNELS 3 Zrotation Yrotation Xrotation
							End Site
							{
								OFFSET 0.000000 0.000000 0.000000 
							}
						}
					}
				}
			}
		}
	}
}
MOTION
Frames: 15
Frame Time: 0.041667
-31.696042 16.654364 -4.560100 174.996884 59.068343 -171.810495 -30.784397 -8.369422 -23.662719 3.224782 13.612157 38.352538 0.870401 3.421436 -20.661362 0.581800 -4.884300 -13.578800 18.265910 12.837017 -28.970272 -13.942828 -20.131332 71.778937 -0.897036 0.684285 -16.006577 -0.149900 2.494900 -6.875400 1.838364 -2.421095 -1.652994 5.532221 -1.441395 0.685046 7.025125 -3.212151 0.209840 1.240000 -1.350000 0.747800 -57.208080 13.866604 73.812558 37.403176 -44.112858 -17.314593 -1.153613 -1.856682 -22.089777 -7.125000 0.000000 0.000000 54.697337 5.658981 48.522156 -37.794328 43.502365 -16.736700 0.260778 -0.140207 -11.139766 7.125000 0.000000 0.000000 
-31.507196 16.628442 -4.648797 174.379966 58.297007 -172.157733 -31.134037 -8.424286 -22.809188 3.183204 13.526431 38.154242 0.966622 3.036869 -20.906146 0.579500 -4.874500 -13.551000 16.901183 14.375438 -31.430504 -13.881443 -20.268558 71.657651 -1.044029 0.948431 -17.287464 -0.167300 2.635100 -7.264500 1.898139 -2.889577 -1.670718 5.492542 -1.693043 0.678981 7.016582 -3.041812 0.120661 1.168300 -1.272500 0.731500 -59.451168 11.395654 72.448491 36.444440 -43.330435 -16.479447 -1.221749 -1.764872 -22.190925 -7.125000 0.000000 0.000000 55.501455 4.062355 46.435748 -35.651664 42.262657 -15.378872 0.312389 -0.170703 -10.834137 7.125000 0.000000 0.000000 
-31.315123 16.602104 -4.738536 173.712584 57.584299 -172.572069 -31.521584 -8.469284 -21.882336 3.129077 13.419867 37.897403 1.051590 2.722595 -21.158058 0.571700 -4.842400 -13.459500 15.405400 15.816068 -33.826233 -13.727338 -20.361793 71.259449 -1.175896 1.171679 -18.382647 -0.177000 2.710100 -7.472700 1.954012 -3.327450 -1.684363 5.490417 -1.931337 0.684371 7.006644 -2.871962 0.007033 1.101400 -1.195600 0.702700 -61.596913 8.792437 71.283086 35.504665 -42.519651 -15.675117 -1.282526 -1.682278 -22.241143 -7.125000 0.000000 0.000000 56.321666 2.525734 44.348244 -33.627661 41.008760 -14.126095 0.363880 -0.196700 -10.651463 7.125000 0.000000 0.000000 
-31.119198 16.576702 -4.829315 172.986383 56.926984 -173.087984 -31.957583 -8.464736 -20.841867 3.056148 13.281142 37.552118 1.129792 2.452664 -21.416358 0.558600 -4.787400 -13.303100 13.824321 17.115772 -36.092008 -13.484195 -20.406085 70.592788 -1.295953 1.388203 -19.321546 -0.178700 2.723300 -7.509200 2.003488 -3.736977 -1.691018 5.517910 -2.158361 0.711919 6.999443 -2.698495 -0.117880 1.038700 -1.116400 0.670900 -63.616578 6.077985 70.342132 34.599087 -41.692745 -14.910306 -1.336581 -1.605676 -22.195750 -7.125000 0.000000 0.000000 57.167990 1.050062 42.342093 -31.758743 39.779746 -12.996752 0.420442 -0.217479 -10.822128 7.125000 0.000000 0.000000 
-30.919213 16.552029 -4.921135 172.211815 56.331788 -173.687945 -32.433075 -8.378962 -19.698164 2.961234 13.105555 37.102227 1.207753 2.193028 -21.685441 0.538600 -4.702300 -13.061500 12.199269 18.246676 -38.231019 -13.159100 -20.400385 69.676317 -1.395907 1.558418 -20.086489 -0.180600 2.737100 -7.547600 2.046801 -4.124124 -1.689595 5.571452 -2.377958 0.779201 6.997410 -2.513544 -0.242558 0.979200 -1.030400 0.644700 -65.509797 3.269041 69.621828 33.731412 -40.856983 -14.187708 -1.386654 -1.533495 -22.027250 -7.125000 0.000000 0.000000 58.028463 -0.354568 40.501099 -30.085918 38.620486 -12.005443 0.480157 -0.222731 -11.618301 7.125000 0.000000 0.000000 
-30.715792 16.527044 -5.013788 171.409890 55.810683 -174.338856 -32.926043 -8.184686 -18.482370 2.845886 12.894559 36.551165 1.284463 1.942859 -21.955183 0.522500 -4.632400 -12.862900 10.571290 19.209363 -40.267580 -12.762007 -20.347013 68.537340 -1.473321 1.691921 -20.667109 -0.177400 2.713000 -7.480700 2.082346 -4.478917 -1.681443 5.633489 -2.584329 0.881973 6.998869 -2.319795 -0.364742 0.917600 -0.939700 0.621600 -67.261266 0.394264 69.128558 32.923106 -40.030966 -13.519583 -1.432606 -1.464995 -21.735612 -7.125000 0.000000 0.000000 58.915853 -1.712513 38.882563 -28.625966 37.565267 -11.155458 0.545913 -0.210064 -13.102965 7.125000 0.000000 0.000000 
-30.509248 16.500393 -5.107483 170.588823 55.370859 -175.028267 -33.421642 -7.856106 -17.220898 2.712748 12.651407 35.907598 1.366227 1.658805 -22.218142 0.510800 -4.581200 -12.717700 8.974811 19.995193 -42.222212 -12.303333 -20.247650 67.203537 -1.525133 1.778763 -21.059464 -0.172400 2.675000 -7.375100 2.110294 -4.799105 -1.667905 5.708882 -2.776875 1.022332 7.017342 -2.132907 -0.477027 0.870300 -0.849400 0.609800 -68.891097 -2.544882 68.851548 32.167236 -39.210612 -12.895535 -1.473169 -1.399231 -21.356557 -7.125000 0.000000 0.000000 59.823013 -3.032137 37.499951 -27.394048 36.646435 -10.450284 0.617439 -0.177073 -15.242200 7.125000 0.000000 0.000000 
-30.300518 16.470515 -5.202218 169.759467 55.008297 -175.741103 -33.902109 -7.387388 -15.931193 2.564753 12.378390 35.179341 1.450145 1.345387 -22.458239 0.509000 -4.573300 -12.695300 7.455436 20.587719 -44.100802 -11.794649 -20.103946 65.704730 -1.551458 1.845216 -21.249857 -0.170000 2.656200 -7.323000 2.130693 -5.075774 -1.652543 5.790696 -2.949432 1.175255 7.048138 -1.966741 -0.584836 0.834500 -0.767500 0.602200 -70.404709 -5.519596 68.799862 31.482612 -38.413453 -12.325375 -1.509128 -1.336922 -20.953103 -7.125000 0.000000 0.000000 60.757190 -4.337554 36.310985 -26.355696 35.853623 -9.866753 0.687168 -0.133693 -17.683855 7.125000 0.000000 0.000000 
-30.089706 16.438035 -5.298411 168.918938 54.705861 -176.494348 -34.361885 -6.762519 -14.601846 2.402603 12.073035 34.363077 1.530619 1.012029 -22.646840 0.523800 -4.638400 -12.880000 6.049640 20.988216 -45.876975 -11.248387 -19.918180 64.073668 -1.556904 1.903575 -21.270471 -0.174100 2.687900 -7.410900 2.146353 -5.314841 -1.637059 5.893873 -3.104905 1.326730 7.085572 -1.825239 -0.690591 0.810100 -0.696300 0.597700 -71.823031 -8.513063 68.960328 30.878746 -37.651072 -11.812021 -1.540544 -1.278228 -20.594375 -7.125000 0.000000 0.000000 61.709673 -5.616537 35.245161 -25.472152 35.163172 -9.378077 0.747245 -0.087166 -19.997251 7.125000 0.000000 0.000000 
-29.876604 16.403264 -5.396686 168.052779 54.454603 -177.303519 -34.806128 -5.989556 -13.217561 2.226760 11.733302 33.454055 1.613079 0.611637 -22.768892 0.539700 -4.707200 -13.075200 4.774391 21.199039 -47.542735 -10.683594 -19.697303 62.363923 -1.540517 1.994836 -21.074394 -0.177800 2.716200 -7.489500 2.158624 -5.518156 -1.621943 6.027483 -3.244397 1.477458 7.123358 -1.710037 -0.792283 0.798900 -0.636500 0.598500 -73.156058 -11.515829 69.344731 30.378067 -36.948375 -11.370129 -1.570723 -1.225612 -20.353032 -7.125000 0.000000 0.000000 62.667021 -6.840401 34.244765 -24.675511 34.523735 -8.945846 0.794913 -0.058108 -21.736322 7.125000 0.000000 0.000000 
-29.661003 16.366515 -5.498188 167.161451 54.248069 -178.166430 -35.234300 -5.069984 -11.774650 2.037261 11.356427 32.445434 1.696551 0.138264 -22.812737 0.553100 -4.764100 -13.237100 3.648272 21.226941 -49.095466 -10.128457 -19.455665 60.660710 -1.481164 2.067082 -20.509178 -0.174600 2.691900 -7.422100 2.170370 -5.697670 -1.608038 6.189693 -3.373431 1.628215 7.137599 -1.601517 -0.891531 0.783300 -0.581900 0.598900 -74.399260 -14.496950 69.945673 30.015780 -36.343696 -11.021425 -1.600975 -1.176470 -20.280094 -7.125000 0.000000 0.000000 63.602104 -7.964681 33.291203 -23.897732 33.875502 -8.527665 0.827584 -0.052165 -22.604482 7.125000 0.000000 0.000000 
-29.443007 16.327788 -5.603230 166.270938 54.066803 -179.058553 -35.628624 -4.032293 -10.269997 1.835805 10.941808 31.337102 1.775640 -0.384471 -22.770612 0.564700 -4.812900 -13.375700 2.697449 21.083737 -50.533971 -9.620036 -19.215698 59.081064 -1.365925 2.058691 -19.473643 -0.148800 2.486000 -6.850900 2.184762 -5.867853 -1.596830 6.379454 -3.498546 1.780991 7.121791 -1.486356 -0.979083 0.763200 -0.525600 0.604900 -75.531863 -17.447143 70.769735 29.812469 -35.861739 -10.778972 -1.634404 -1.132616 -20.383225 -7.125000 0.000000 0.000000 64.484951 -8.943431 32.387163 -23.082485 33.166533 -8.093311 0.848763 -0.073509 -22.538923 7.125000 0.000000 0.000000 
-29.223034 16.287187 -5.711915 165.392682 53.887853 -179.962116 -35.983460 -2.907040 -8.703659 1.625566 10.491716 30.137922 1.849160 -0.957291 -22.635470 0.571500 -4.841400 -13.456600 1.933438 20.758264 -51.884025 -9.197887 -19.005452 57.755183 -1.192670 1.820741 -18.011591 -0.106300 2.102300 -5.788500 2.205191 -6.050030 -1.590708 6.593341 -3.629999 1.935685 7.064586 -1.346937 -1.046280 0.728500 -0.460600 0.620100 -76.535322 -20.359395 71.793895 29.785908 -35.521623 -10.650490 -1.670495 -1.090181 -20.634739 -7.125000 0.000000 0.000000 65.268934 -9.726203 31.551834 -22.199338 32.364062 -7.626881 0.861111 -0.112681 -21.767831 7.125000 0.000000 0.000000 
-29.000979 16.245129 -5.824764 164.551018 53.705623 179.155280 -36.286993 -1.726354 -7.092786 1.411175 10.011845 28.865985 1.905977 -1.505975 -22.412338 0.588800 -4.912700 -13.659700 1.362831 20.281861 -53.170596 -8.893031 -18.851390 56.790064 -0.981697 1.280436 -16.319774 -0.056900 1.539600 -4.234900 2.232642 -6.253392 -1.592546 6.817403 -3.771018 2.090319 6.966863 -1.173602 -1.080374 0.676900 -0.382400 0.651200 -77.367750 -23.222964 72.972459 29.956807 -35.339573 -10.643003 -1.705188 -1.048555 -20.988563 -7.125000 0.000000 0.000000 65.929541 -10.286905 30.804678 -21.236282 31.452952 -7.126000 0.869087 -0.161736 -20.628823 7.125000 0.000000 0.000000 
-28.776216 16.201717 -5.942299 163.749971 53.525633 178.305991 -36.542674 -0.497178 -5.457686 1.198634 9.511217 27.547763 1.949485 -2.041655 -22.112120 0.612800 -5.010300 -13.937900 0.987891 19.672398 -54.418909 -8.724763 -18.772908 56.254305 -0.761141 0.459413 -14.669091 -0.016800 0.838100 -2.303400 2.266246 -6.482508 -1.603822 7.034658 -3.923475 2.251398 6.835838 -0.966390 -1.066519 0.610700 -0.289800 0.710300 -77.999265 -26.063075 74.240034 30.325574 -35.307140 -10.751847 -1.735414 -1.013199 -21.388354 -7.125000 0.000000 0.000000 66.451062 -10.609497 30.150072 -20.216982 30.454139 -6.609813 0.881044 -0.211947 -19.508641 7.125000 0.000000 0.000000 
